<?xml version="1.0" encoding="UTF-8"?>
<svg id="Layer_1" data-name="Layer 1" xmlns="http://www.w3.org/2000/svg" xmlns:xlink="http://www.w3.org/1999/xlink" viewBox="0 0 1920 80">
  <defs>
    <style>
      .cls-1 {
        font-size: 24px;
      }

      .cls-1, .cls-2 {
        font-family: TimesNewRomanPSMT, 'Times New Roman';
      }

      .cls-3 {
        clip-path: url(#clippath);
      }

      .cls-4, .cls-5, .cls-6 {
        fill: none;
      }

      .cls-4, .cls-7, .cls-8, .cls-9 {
        stroke-width: 0px;
      }

      .cls-2 {
        font-size: 48px;
      }

      .cls-2, .cls-8 {
        fill: #fff;
      }

      .cls-5 {
        stroke: #fff;
      }

      .cls-5, .cls-6 {
        stroke-linecap: round;
        stroke-linejoin: round;
        stroke-width: 2px;
      }

      .cls-10 {
        letter-spacing: -.0552em;
      }

      .cls-9 {
        fill: #fd0;
      }

      .cls-6 {
        fill-rule: evenodd;
        stroke: #000;
      }
    </style>
    <clipPath id="clippath">
      <circle class="cls-4" cx="1760" cy="40" r="20"/>
    </clipPath>
  </defs>
  <rect class="cls-7" width="1920" height="80"/>
  <g id="logo">
    <path class="cls-9" d="m61,40.846h5.762c.5527,0,1-.4473,1-1s-.4473-1-1-1h-5.762c-.5527,0-1,.4473-1,1s.4473,1,1,1Zm48.0227-1c0-.5527-.4473-1-1-1h-5.762c-.5527,0-1,.4473-1,1s.4473,1,1,1h5.762c.5527,0,1-.4473,1-1Zm-25.5113-23.5113v5.762c0,.5527.4473,1,1,1s1-.4473,1-1v-5.762c0-.5527-.4473-1-1-1s-1,.4473-1,1Zm16.918,6.1793l-4.074,4.074c-.3907.39-.3907,1.024,0,1.414.1953.1953.4513.2927.7073.2927s.512-.0973.7073-.2927l4.074-4.074c.3907-.39.3907-1.024,0-1.414-.3913-.3907-1.024-.3907-1.4147,0Zm-27.762,29.176c-.3907-.3907-1.0233-.3907-1.414,0l-4.074,4.074c-.3907.39-.3907,1.0233,0,1.414.1953.1953.4513.2927.7073.2927s.512-.0973.7073-.2927l4.074-4.074c.39-.39.39-1.0233-.0007-1.414Zm-1.414-23.688c.1953.1953.4513.2927.7073.2927s.512-.0973.7073-.2927c.3907-.39.3907-1.024,0-1.414l-4.074-4.074c-.3907-.3907-1.0233-.3907-1.414,0-.3907.39-.3907,1.024,0,1.414l4.0733,4.074Zm29.176,29.176c.1953.1953.4513.2927.7073.2927s.512-.0973.7073-.2927c.3907-.3907.3907-1.024,0-1.414l-4.074-4.074c-.3907-.3907-1.0233-.3907-1.414,0s-.3907,1.024,0,1.414l4.0733,4.074Zm-15.9183-31.992c-.5514,0-1.1114.0307-1.664.092-7,.774-12.5734,6.6753-12.9647,13.7273-.236,4.2527,1.3774,8.3887,4.4267,11.3467,2.4026,2.3307,3.7806,5.54,3.7806,8.8054v1.8826c0,1.9993,1.626,3.6254,3.6254,3.6254h5.5913c1.9993.0013,3.626-1.6254,3.626-3.6247v-1.8813c0-3.3066,1.3433-6.4833,3.686-8.7153,2.9307-2.7927,4.5447-6.5593,4.5447-10.606,0-8.0793-6.5727-14.652-14.652-14.652Zm.0003,26.66c-6.6274,0-12-5.3726-12-12s5.3726-12,12-12,12,5.3726,12,12-5.3726,12-12,12Z"/>
    <text class="cls-2" transform="translate(126.0025 57.0858)"><tspan x="0" y="0">Illuminato</tspan><tspan class="cls-10" x="199.9688" y="0">r</tspan><tspan x="213.3047" y="0">.</tspan></text>
  </g>
  <g id="searchbar">
    <rect class="cls-8" x="632.844" y="20" width="654.312" height="40"/>
    <text class="cls-1" transform="translate(648.844 46.2927)"><tspan x="0" y="0">Search or ask a question...</tspan></text>
    <path class="cls-6" d="m1250.0677,44.9706c3.8823,3.8822,10.1766,3.8822,14.0589,0,3.8822-3.8823,3.8822-10.1766,0-14.0589s-10.1766-3.8822-14.0589,0c-3.8822,3.8823-3.8822,10.1766,0,14.0589Zm14.0589,0l7.0295,7.0294-7.0295-7.0294Z"/>
  </g>
  <g id="globe">
    <circle class="cls-5" cx="1760" cy="40" r="20"/>
    <ellipse class="cls-5" cx="1760" cy="40" rx="10" ry="20"/>
    <line class="cls-5" x1="1760" y1="20" x2="1760" y2="60"/>
    <line class="cls-5" x1="1740" y1="40" x2="1780" y2="40"/>
    <g class="cls-3">
      <path class="cls-5" d="m1740,50h40m-40-20h40"/>
    </g>
  </g>
  <path id="bars" class="cls-5" d="m1820,55h40m-40-15h40m-40-15h40"/>
</svg>